<svg width="25" height="25" viewBox="0 0 25 25" fill="none" xmlns="http://www.w3.org/2000/svg">
<g clip-path="url(#clip0_3_2)">
<path d="M23.7066 1.8099C23.4635 1.26736 22.7691 1.24566 22.4783 1.75781C21.1328 4.09722 18.724 5.55556 15.9722 5.55556H12.5C7.8993 5.55556 4.16666 9.28819 4.16666 13.8889C4.16666 14.1927 4.20139 14.4835 4.23177 14.7786C7.00087 12.7951 10.9983 11.1111 16.6667 11.1111C17.0486 11.1111 17.3611 11.4236 17.3611 11.8056C17.3611 12.1875 17.0486 12.5 16.6667 12.5C5.75521 12.5 1.12847 19.1884 0.104165 21.7014C-0.182294 22.4089 0.156248 23.2161 0.863713 23.5069C1.57552 23.8021 2.38281 23.4592 2.67795 22.7561C2.74305 22.5998 3.58507 20.6771 5.79861 18.8238C7.20486 20.7292 9.87847 22.5477 13.3898 22.1745C20.204 21.6797 25 15.5686 25 8.08594C25 5.90712 24.5312 3.65017 23.7066 1.8099Z" fill="#7dbd4a"/>
</g>
<defs>
<clipPath id="clip0_3_2">
<rect width="25" height="25" fill="white"/>
</clipPath>
</defs>
</svg>
